<mxfile host="drawio-plugin" modified="2024-04-05T08:44:04.825Z" agent="5.0 (X11; Linux x86_64) AppleWebKit/537.36 (KHTML, like Gecko) Chrome/111.0.0.0 Safari/537.36" etag="KCxOOQeg4tBHwUVLAIzQ" version="20.5.3" type="embed"><diagram id="bflF9soCowuYqkwAGeY8" name="Страница — 1"><mxGraphModel dx="1243" dy="1251" grid="1" gridSize="10" guides="1" tooltips="1" connect="1" arrows="1" fold="1" page="1" pageScale="1" pageWidth="583" pageHeight="827" background="#000000" math="0" shadow="0"><root><mxCell id="0"/><mxCell id="1" parent="0"/><mxCell id="node1" value="&lt;p style=&quot;margin:0px;margin-top:4px;text-align:center;&quot;&gt;&lt;b&gt;UML.Board&lt;/b&gt;&lt;/p&gt;&lt;hr size=&quot;1&quot;/&gt;&lt;p style=&quot;margin:0 0 0 4px;line-height:1.6;&quot;&gt; __grid: &lt;br/&gt; __cat_box: &lt;br/&gt; __game_pos_y: &lt;br/&gt; field: &lt;br/&gt; __game_pos_x: &lt;br/&gt; __id: &lt;br/&gt; id: &lt;/p&gt;&lt;hr size=&quot;1&quot;/&gt;&lt;p style=&quot;margin:0 0 0 4px;line-height:1.6;&quot;&gt; __init__(self, field : int=400, water_amount : int=10, water_size : int = 5, tree_amount : int = 10,                  fertile_soil_amount : int=10): &lt;br/&gt; __repr__(self): &lt;br/&gt; increase_coordinates(self, x : int, y : int): &lt;br/&gt; update_cordinates(self, new_x : int, new_y : int): &lt;br/&gt; get_grid(self): &lt;br/&gt; get_grid_size(self): &lt;br/&gt; get_cat_box(self): &lt;br/&gt; set_grid(self, new_grid : list[list[Optional[SingleSquare]]]): &lt;br/&gt; set_cat_box(self, new_cat : tuple[int,int]): &lt;br/&gt; get_game_pos(self): &lt;br/&gt; get_game_pos_x(self): &lt;br/&gt; get_game_pos_y(self): &lt;br/&gt; update(self): &lt;/p&gt;" style="verticalAlign=top;align=left;overflow=fill;fontSize=14;fontFamily=Helvetica;html=1;rounded=0;shadow=0;comic=0;labelBackgroundColor=none;strokeWidth=1;" parent="1" vertex="1"><mxGeometry x="2750" y="1212" width="390" height="520" as="geometry"/></mxCell><mxCell id="node12" value="&lt;p style=&quot;margin:0px;margin-top:4px;text-align:center;&quot;&gt;&lt;b&gt;UML.Building&lt;/b&gt;&lt;/p&gt;&lt;hr size=&quot;1&quot;/&gt;&lt;p style=&quot;margin:0 0 0 4px;line-height:1.6;&quot;&gt; active_skin: &lt;br/&gt; fuel: &lt;br/&gt; _type: &lt;br/&gt; _skin: &lt;br/&gt; __is_active: &lt;br/&gt; input_resources: &lt;br/&gt; output: &lt;br/&gt; __start_of_active: &lt;br/&gt; input: &lt;br/&gt; __id: &lt;br/&gt; inactive_skin: &lt;br/&gt; output_resources: &lt;br/&gt; __alowded_fuel: &lt;br/&gt; id: &lt;/p&gt;&lt;hr size=&quot;1&quot;/&gt;&lt;p style=&quot;margin:0 0 0 4px;line-height:1.6;&quot;&gt; __init__(self): &lt;br/&gt; __repr__(self): &lt;br/&gt; change_active(self): &lt;br/&gt; change_skin(self): &lt;br/&gt; update(self): &lt;br/&gt; get_skin(self): &lt;br/&gt; get_type(self): &lt;/p&gt;" style="verticalAlign=top;align=left;overflow=fill;fontSize=14;fontFamily=Helvetica;html=1;rounded=0;shadow=0;comic=0;labelBackgroundColor=none;strokeWidth=1;" parent="1" vertex="1"><mxGeometry x="415" y="2524" width="158" height="544" as="geometry"/></mxCell><mxCell id="node3" value="&lt;p style=&quot;margin:0px;margin-top:4px;text-align:center;&quot;&gt;&lt;b&gt;UML.Button&lt;/b&gt;&lt;/p&gt;&lt;hr size=&quot;1&quot;/&gt;&lt;p style=&quot;margin:0 0 0 4px;line-height:1.6;&quot;&gt; parent: &lt;br/&gt; image: &lt;br/&gt; not_hovered_skin: &lt;br/&gt; parent_position: &lt;br/&gt; skin: &lt;br/&gt; buttonRect: &lt;br/&gt; is_hovered: &lt;br/&gt; func: &lt;br/&gt; __id: &lt;br/&gt; width: &lt;br/&gt; text: &lt;br/&gt; position: &lt;br/&gt; hovered_skin: &lt;br/&gt; height: &lt;br/&gt; id: &lt;/p&gt;&lt;hr size=&quot;1&quot;/&gt;&lt;p style=&quot;margin:0 0 0 4px;line-height:1.6;&quot;&gt; __init__(self, text : str=&amp;quot;START&amp;quot;, width : int =100, height : int = 100, hovered_skin : str= &amp;quot;sprites/empty.png&amp;quot;,                  not_hovered_skin : str=&amp;quot;sprites/empty.png&amp;quot;, func=None,                  position : list[int]=None, parent : Optional=None, parent_position : str = &amp;quot;absolute&amp;quot;): &lt;br/&gt; handle_hover(self): &lt;br/&gt; handle_event(self, event : pygame.event): &lt;br/&gt; update(self, event : pygame.event): &lt;br/&gt; change_skin(self): &lt;/p&gt;" style="verticalAlign=top;align=left;overflow=fill;fontSize=14;fontFamily=Helvetica;html=1;rounded=0;shadow=0;comic=0;labelBackgroundColor=none;strokeWidth=1;" parent="1" vertex="1"><mxGeometry x="1490" y="1212" width="361" height="520" as="geometry"/></mxCell><mxCell id="node7" value="&lt;p style=&quot;margin:0px;margin-top:4px;text-align:center;&quot;&gt;&lt;b&gt;UML.Drawing&lt;/b&gt;&lt;/p&gt;&lt;hr size=&quot;1&quot;/&gt;&lt;p style=&quot;margin:0 0 0 4px;line-height:1.6;&quot;&gt; field: &lt;br/&gt; objects: &lt;br/&gt; LENGTH: &lt;br/&gt; scale: &lt;br/&gt; HIGHT: &lt;br/&gt; step: &lt;br/&gt; sprites: &lt;br/&gt; my_font: &lt;/p&gt;&lt;hr size=&quot;1&quot;/&gt;&lt;p style=&quot;margin:0 0 0 4px;line-height:1.6;&quot;&gt; in_kwargs(find_option, **kwargs): &lt;br/&gt; __init__(self, **kwargs): &lt;br/&gt; update_parametrs(self, **kwargs): &lt;br/&gt; draw(self, surface, player=None, board=None, this_single_square=None, object=None,              inventory=None, pos_x=None,              pos_y=None, draw_scale=1, button=None, Menu=None): &lt;br/&gt; draw_player(self, surface: pygame, player, board, draw_scale=1): &lt;br/&gt; draw_object(self, surface: pygame, object, board, pos_x, pos_y, draw_scale=1): &lt;br/&gt; draw_inventory(self, surface: pygame, inventory): &lt;br/&gt; draw_single_square(self, surface: pygame, single_square, board, pos_x, pos_y, draw_scale=1): &lt;br/&gt; draw_board(self, surface: pygame, board): &lt;br/&gt; draw_button(self, surface: pygame, button: Button): &lt;br/&gt; draw_menu(self, surface: pygame, menu): &lt;/p&gt;" style="verticalAlign=top;align=left;overflow=fill;fontSize=14;fontFamily=Helvetica;html=1;rounded=0;shadow=0;comic=0;labelBackgroundColor=none;strokeWidth=1;" parent="1" vertex="1"><mxGeometry x="1900" y="1212" width="417" height="496" as="geometry"/></mxCell><mxCell id="node0" value="&lt;p style=&quot;margin:0px;margin-top:4px;text-align:center;&quot;&gt;&lt;b&gt;UML.Fertile_soil&lt;/b&gt;&lt;/p&gt;&lt;hr size=&quot;1&quot;/&gt;&lt;p style=&quot;margin:0 0 0 4px;line-height:1.6;&quot;&gt; __id: &lt;br/&gt; id: &lt;/p&gt;&lt;hr size=&quot;1&quot;/&gt;&lt;p style=&quot;margin:0 0 0 4px;line-height:1.6;&quot;&gt; __init__(self): &lt;/p&gt;" style="verticalAlign=top;align=left;overflow=fill;fontSize=14;fontFamily=Helvetica;html=1;rounded=0;shadow=0;comic=0;labelBackgroundColor=none;strokeWidth=1;" parent="1" vertex="1"><mxGeometry x="-350" y="3110" width="157" height="121" as="geometry"/></mxCell><mxCell id="node9" value="&lt;p style=&quot;margin:0px;margin-top:4px;text-align:center;&quot;&gt;&lt;b&gt;UML.Furnace&lt;/b&gt;&lt;/p&gt;&lt;hr size=&quot;1&quot;/&gt;&lt;p style=&quot;margin:0 0 0 4px;line-height:1.6;&quot;&gt; __output_resources: &lt;br/&gt; active_skin: &lt;br/&gt; fuel: &lt;br/&gt; _type: &lt;br/&gt; _skin: &lt;br/&gt; __is_active: &lt;br/&gt; input_resources: &lt;br/&gt; output: &lt;br/&gt; __start_of_active: &lt;br/&gt; input: &lt;br/&gt; __id: &lt;br/&gt; __input_resources: &lt;br/&gt; inactive_skin: &lt;br/&gt; __alowded_fuel: &lt;br/&gt; output_resources: &lt;br/&gt; id: &lt;/p&gt;&lt;hr size=&quot;1&quot;/&gt;&lt;p style=&quot;margin:0 0 0 4px;line-height:1.6;&quot;&gt; __init__(self): &lt;br/&gt; __repr__(self): &lt;/p&gt;" style="verticalAlign=top;align=left;overflow=fill;fontSize=14;fontFamily=Helvetica;html=1;rounded=0;shadow=0;comic=0;labelBackgroundColor=none;strokeWidth=1;" parent="1" vertex="1"><mxGeometry x="415" y="3231" width="159" height="472" as="geometry"/></mxCell><mxCell id="node19" value="&lt;p style=&quot;margin:0px;margin-top:4px;text-align:center;&quot;&gt;&lt;b&gt;UML.GameAdapter&lt;/b&gt;&lt;/p&gt;&lt;hr size=&quot;1&quot;/&gt;&lt;p style=&quot;margin:0 0 0 4px;line-height:1.6;&quot;&gt; get_game_parameters(cls, Game : SingleGame): &lt;/p&gt;" style="verticalAlign=top;align=left;overflow=fill;fontSize=14;fontFamily=Helvetica;html=1;rounded=0;shadow=0;comic=0;labelBackgroundColor=none;strokeWidth=1;" parent="1" vertex="1"><mxGeometry x="-55" y="541" width="331" height="68" as="geometry"/></mxCell><mxCell id="node24" value="&lt;p style=&quot;margin:0px;margin-top:4px;text-align:center;&quot;&gt;&lt;b&gt;UML.GameObject&lt;/b&gt;&lt;/p&gt;&lt;hr size=&quot;1&quot;/&gt;&lt;p style=&quot;margin:0 0 0 4px;line-height:1.6;&quot;&gt; __get_prototipe(self, prototipe): &lt;br/&gt; __init__(self): &lt;br/&gt; get_skin(self): &lt;br/&gt; get_type(self): &lt;/p&gt;" style="verticalAlign=top;align=left;overflow=fill;fontSize=14;fontFamily=Helvetica;html=1;rounded=0;shadow=0;comic=0;labelBackgroundColor=none;strokeWidth=1;" parent="1" vertex="1"><mxGeometry x="-270" y="1840" width="232" height="146" as="geometry"/></mxCell><mxCell id="node6" value="&lt;p style=&quot;margin:0px;margin-top:4px;text-align:center;&quot;&gt;&lt;b&gt;UML.GlobalObject&lt;/b&gt;&lt;/p&gt;&lt;hr size=&quot;1&quot;/&gt;&lt;p style=&quot;margin:0 0 0 4px;line-height:1.6;&quot;&gt; id: &lt;/p&gt;&lt;hr size=&quot;1&quot;/&gt;&lt;p style=&quot;margin:0 0 0 4px;line-height:1.6;&quot;&gt; __init__(self): &lt;/p&gt;" style="verticalAlign=top;align=left;overflow=fill;fontSize=14;fontFamily=Helvetica;html=1;rounded=0;shadow=0;comic=0;labelBackgroundColor=none;strokeWidth=1;" parent="1" vertex="1"><mxGeometry x="-264" y="541" width="174" height="95" as="geometry"/></mxCell><mxCell id="node11" value="&lt;p style=&quot;margin:0px;margin-top:4px;text-align:center;&quot;&gt;&lt;b&gt;UML.Ground&lt;/b&gt;&lt;/p&gt;&lt;hr size=&quot;1&quot;/&gt;&lt;p style=&quot;margin:0 0 0 4px;line-height:1.6;&quot;&gt; __id: &lt;br/&gt; _skin: &lt;br/&gt; is_player_available: &lt;br/&gt; id: &lt;/p&gt;&lt;hr size=&quot;1&quot;/&gt;&lt;p style=&quot;margin:0 0 0 4px;line-height:1.6;&quot;&gt; __init__(self): &lt;/p&gt;" style="verticalAlign=top;align=left;overflow=fill;fontSize=14;fontFamily=Helvetica;html=1;rounded=0;shadow=0;comic=0;labelBackgroundColor=none;strokeWidth=1;" parent="1" vertex="1"><mxGeometry x="1260" y="1840" width="149" height="160" as="geometry"/></mxCell><mxCell id="node16" value="&lt;p style=&quot;margin:0px;margin-top:4px;text-align:center;&quot;&gt;&lt;b&gt;UML.Logger&lt;/b&gt;&lt;/p&gt;&lt;hr size=&quot;1&quot;/&gt;&lt;p style=&quot;margin:0 0 0 4px;line-height:1.6;&quot;&gt; date: &lt;br/&gt; debug: &lt;br/&gt; warnings: &lt;br/&gt; errors: &lt;br/&gt; info: &lt;br/&gt; objects: &lt;br/&gt; date: &lt;br/&gt; info: &lt;br/&gt; warnings: &lt;br/&gt; errors: &lt;br/&gt; debug: &lt;/p&gt;&lt;hr size=&quot;1&quot;/&gt;&lt;p style=&quot;margin:0 0 0 4px;line-height:1.6;&quot;&gt; __init__(self): &lt;br/&gt; add_info(cls, text : str): &lt;br/&gt; add_warnings(cls, text : str): &lt;br/&gt; add_errors(cls, text : str): &lt;br/&gt; add_debug(cls, text : str): &lt;/p&gt;" style="verticalAlign=top;align=left;overflow=fill;fontSize=14;fontFamily=Helvetica;html=1;rounded=0;shadow=0;comic=0;labelBackgroundColor=none;strokeWidth=1;" parent="1" vertex="1"><mxGeometry x="320" y="541" width="211" height="424" as="geometry"/></mxCell><mxCell id="node2" value="&lt;p style=&quot;margin:0px;margin-top:4px;text-align:center;&quot;&gt;&lt;b&gt;UML.MainMenu&lt;/b&gt;&lt;/p&gt;&lt;hr size=&quot;1&quot;/&gt;&lt;p style=&quot;margin:0 0 0 4px;line-height:1.6;&quot;&gt; background: &lt;/p&gt;&lt;hr size=&quot;1&quot;/&gt;&lt;p style=&quot;margin:0 0 0 4px;line-height:1.6;&quot;&gt; __init__(self, **kwargs): &lt;/p&gt;" style="verticalAlign=top;align=left;overflow=fill;fontSize=14;fontFamily=Helvetica;html=1;rounded=0;shadow=0;comic=0;labelBackgroundColor=none;strokeWidth=1;" parent="1" vertex="1"><mxGeometry x="54" y="1840" width="179" height="95" as="geometry"/></mxCell><mxCell id="node8" value="&lt;p style=&quot;margin:0px;margin-top:4px;text-align:center;&quot;&gt;&lt;b&gt;UML.Menu&lt;/b&gt;&lt;/p&gt;&lt;hr size=&quot;1&quot;/&gt;&lt;p style=&quot;margin:0 0 0 4px;line-height:1.6;&quot;&gt; buttons: &lt;br/&gt; surface: &lt;br/&gt; Draw: &lt;br/&gt; background: &lt;br/&gt; __id: &lt;br/&gt; width: &lt;br/&gt; x: &lt;br/&gt; y: &lt;br/&gt; height: &lt;br/&gt; id: &lt;/p&gt;&lt;hr size=&quot;1&quot;/&gt;&lt;p style=&quot;margin:0 0 0 4px;line-height:1.6;&quot;&gt; __init__(self, background=None, buttons=[[]], width=2000, height=1000, x=0, y=0): &lt;br/&gt; handle_hover(self): &lt;br/&gt; update(self, event : pygame.event): &lt;br/&gt; show(self): &lt;/p&gt;" style="verticalAlign=top;align=left;overflow=fill;fontSize=14;fontFamily=Helvetica;html=1;rounded=0;shadow=0;comic=0;labelBackgroundColor=none;strokeWidth=1;" parent="1" vertex="1"><mxGeometry x="-66" y="1212" width="419" height="376" as="geometry"/></mxCell><mxCell id="node4" value="&lt;p style=&quot;margin:0px;margin-top:4px;text-align:center;&quot;&gt;&lt;b&gt;UML.Miners&lt;/b&gt;&lt;/p&gt;&lt;hr size=&quot;1&quot;/&gt;&lt;p style=&quot;margin:0 0 0 4px;line-height:1.6;&quot;&gt; __id: &lt;br/&gt; _skin: &lt;br/&gt; _resource: &lt;br/&gt; _amount: &lt;br/&gt; id: &lt;/p&gt;&lt;hr size=&quot;1&quot;/&gt;&lt;p style=&quot;margin:0 0 0 4px;line-height:1.6;&quot;&gt; __init__(self, resource : Optional[Resources]=None, amount : Optional[int]=0, skin : Optional[str]=None): &lt;br/&gt; __repr__(self): &lt;br/&gt; get_resource(self): &lt;br/&gt; get_skin(self): &lt;/p&gt;" style="verticalAlign=top;align=left;overflow=fill;fontSize=14;fontFamily=Helvetica;html=1;rounded=0;shadow=0;comic=0;labelBackgroundColor=none;strokeWidth=1;" parent="1" vertex="1"><mxGeometry x="-352" y="2527.5" width="398" height="256" as="geometry"/></mxCell><mxCell id="node10" value="&lt;p style=&quot;margin:0px;margin-top:4px;text-align:center;&quot;&gt;&lt;b&gt;UML.Player&lt;/b&gt;&lt;/p&gt;&lt;hr size=&quot;1&quot;/&gt;&lt;p style=&quot;margin:0 0 0 4px;line-height:1.6;&quot;&gt; __skin: &lt;br/&gt; __direction: &lt;br/&gt; __name: &lt;br/&gt; __inventory: &lt;br/&gt; __y: &lt;br/&gt; __x: &lt;br/&gt; __settings: &lt;br/&gt; __status: &lt;br/&gt; statuses: &lt;/p&gt;&lt;hr size=&quot;1&quot;/&gt;&lt;p style=&quot;margin:0 0 0 4px;line-height:1.6;&quot;&gt; __init__(self, name=&amp;quot;Mihaham&amp;quot;, position_x=0, position_y=0, skin=&amp;quot;sprites/bottom.png&amp;quot;,                  settings=None, scale=72): &lt;br/&gt; __repr__(self): &lt;br/&gt; move(self, event, board=None, scale=72): &lt;br/&gt; update_skin(self): &lt;br/&gt; get_inventory(self): &lt;br/&gt; get_status(self): &lt;br/&gt; get_name(self): &lt;br/&gt; rename(self, new_name): &lt;br/&gt; get_skin(self): &lt;br/&gt; get_direction(self): &lt;br/&gt; get_position(self): &lt;br/&gt; get_x(self): &lt;br/&gt; get_y(self): &lt;br/&gt; set_direction(self, new_direction): &lt;br/&gt; update_position(self, position): &lt;br/&gt; update(self, board, step=None, scale=None, field=None, Center_x=0, Center_y=0): &lt;/p&gt;" style="verticalAlign=top;align=left;overflow=fill;fontSize=14;fontFamily=Helvetica;html=1;rounded=0;shadow=0;comic=0;labelBackgroundColor=none;strokeWidth=1;" parent="1" vertex="1"><mxGeometry x="410" y="1212" width="430" height="640" as="geometry"/></mxCell><mxCell id="node21" value="&lt;p style=&quot;margin:0px;margin-top:4px;text-align:center;&quot;&gt;&lt;b&gt;UML.Resources&lt;/b&gt;&lt;/p&gt;&lt;hr size=&quot;1&quot;/&gt;&lt;p style=&quot;margin:0 0 0 4px;line-height:1.6;&quot;&gt; _is_burnable: &lt;br/&gt; __id: &lt;br/&gt; _skin: &lt;br/&gt; id: &lt;/p&gt;&lt;hr size=&quot;1&quot;/&gt;&lt;p style=&quot;margin:0 0 0 4px;line-height:1.6;&quot;&gt; __from_prototipe(self, prototipe): &lt;br/&gt; __init__(self, prototipe : Optional =None): &lt;br/&gt; get_skin(self): &lt;br/&gt; get_is_burnable(self): &lt;br/&gt; copy(self): &lt;/p&gt;" style="verticalAlign=top;align=left;overflow=fill;fontSize=14;fontFamily=Helvetica;html=1;rounded=0;shadow=0;comic=0;labelBackgroundColor=none;strokeWidth=1;" parent="1" vertex="1"><mxGeometry x="66" y="2524" width="289" height="256" as="geometry"/></mxCell><mxCell id="node13" value="&lt;p style=&quot;margin:0px;margin-top:4px;text-align:center;&quot;&gt;&lt;b&gt;UML.SingleGame&lt;/b&gt;&lt;/p&gt;&lt;hr size=&quot;1&quot;/&gt;&lt;p style=&quot;margin:0 0 0 4px;line-height:1.6;&quot;&gt; water_size: &lt;br/&gt; surface: &lt;br/&gt; Draw: &lt;br/&gt; Screen: &lt;br/&gt; LENGTH: &lt;br/&gt; fps: &lt;br/&gt; scale: &lt;br/&gt; HIGHT: &lt;br/&gt; clock: &lt;br/&gt; tree_amount: &lt;br/&gt; fertile_soil_amount: &lt;br/&gt; water_amount: &lt;br/&gt; field: &lt;br/&gt; __id: &lt;br/&gt; step: &lt;br/&gt; center_y: &lt;br/&gt; board: &lt;br/&gt; center_x: &lt;br/&gt; Exit: &lt;br/&gt; player: &lt;br/&gt; id: &lt;/p&gt;&lt;hr size=&quot;1&quot;/&gt;&lt;p style=&quot;margin:0 0 0 4px;line-height:1.6;&quot;&gt; __init__(self): &lt;br/&gt; play(self): &lt;br/&gt; update_screen_size(self, x : int, y : int): &lt;br/&gt; change_screen_size(self): &lt;/p&gt;" style="verticalAlign=top;align=left;overflow=fill;fontSize=14;fontFamily=Helvetica;html=1;rounded=0;shadow=0;comic=0;labelBackgroundColor=none;strokeWidth=1;" parent="1" vertex="1"><mxGeometry x="2360" y="1212" width="279" height="640" as="geometry"/></mxCell><mxCell id="node20" value="&lt;p style=&quot;margin:0px;margin-top:4px;text-align:center;&quot;&gt;&lt;b&gt;UML.SingleSquare&lt;/b&gt;&lt;/p&gt;&lt;hr size=&quot;1&quot;/&gt;&lt;p style=&quot;margin:0 0 0 4px;line-height:1.6;&quot;&gt; __id: &lt;br/&gt; _miners: &lt;br/&gt; _buildings: &lt;br/&gt; _resources: &lt;br/&gt; _skin: &lt;br/&gt; is_player_available: &lt;br/&gt; id: &lt;/p&gt;&lt;hr size=&quot;1&quot;/&gt;&lt;p style=&quot;margin:0 0 0 4px;line-height:1.6;&quot;&gt; __take_prototipe__(self, prototipe): &lt;br/&gt; __init__(self, skin : Optional[str] = None, prototipe =None): &lt;br/&gt; __repr__(self): &lt;br/&gt; set_skin(self, skin : Optional[str]=None, prototipe=None): &lt;br/&gt; get_skin(self): &lt;br/&gt; add_building(self, object : Building): &lt;br/&gt; get_buildings(self): &lt;br/&gt; get_miners(self): &lt;br/&gt; copy(self): &lt;br/&gt; update(self): &lt;br/&gt; add_miner(self, miner : Miners): &lt;br/&gt; mine(self): &lt;br/&gt; get_resources(self): &lt;/p&gt;" style="verticalAlign=top;align=left;overflow=fill;fontSize=14;fontFamily=Helvetica;html=1;rounded=0;shadow=0;comic=0;labelBackgroundColor=none;strokeWidth=1;" parent="1" vertex="1"><mxGeometry x="1050" y="1212" width="400" height="520" as="geometry"/></mxCell><mxCell id="node22" value="&lt;p style=&quot;margin:0px;margin-top:4px;text-align:center;&quot;&gt;&lt;b&gt;UML.Soil&lt;/b&gt;&lt;/p&gt;&lt;hr size=&quot;1&quot;/&gt;&lt;p style=&quot;margin:0 0 0 4px;line-height:1.6;&quot;&gt; _is_burnable: &lt;br/&gt; __id: &lt;br/&gt; _skin: &lt;br/&gt; id: &lt;/p&gt;&lt;hr size=&quot;1&quot;/&gt;&lt;p style=&quot;margin:0 0 0 4px;line-height:1.6;&quot;&gt; __init__(self): &lt;/p&gt;" style="verticalAlign=top;align=left;overflow=fill;fontSize=14;fontFamily=Helvetica;html=1;rounded=0;shadow=0;comic=0;labelBackgroundColor=none;strokeWidth=1;" parent="1" vertex="1"><mxGeometry x="90" y="3090.5" width="113" height="160" as="geometry"/></mxCell><mxCell id="node5" value="&lt;p style=&quot;margin:0px;margin-top:4px;text-align:center;&quot;&gt;&lt;b&gt;UML.StartButton&lt;/b&gt;&lt;/p&gt;&lt;hr size=&quot;1&quot;/&gt;&lt;p style=&quot;margin:0 0 0 4px;line-height:1.6;&quot;&gt; func: &lt;br/&gt; __id: &lt;br/&gt; id: &lt;/p&gt;&lt;hr size=&quot;1&quot;/&gt;&lt;p style=&quot;margin:0 0 0 4px;line-height:1.6;&quot;&gt; __init__(self, **kwargs): &lt;/p&gt;" style="verticalAlign=top;align=left;overflow=fill;fontSize=14;fontFamily=Helvetica;html=1;rounded=0;shadow=0;comic=0;labelBackgroundColor=none;strokeWidth=1;" parent="1" vertex="1"><mxGeometry x="1581" y="1840" width="179" height="147" as="geometry"/></mxCell><mxCell id="node15" value="&lt;p style=&quot;margin:0px;margin-top:4px;text-align:center;&quot;&gt;&lt;b&gt;UML.Tree&lt;/b&gt;&lt;/p&gt;&lt;hr size=&quot;1&quot;/&gt;&lt;p style=&quot;margin:0 0 0 4px;line-height:1.6;&quot;&gt; __id: &lt;br/&gt; id: &lt;/p&gt;&lt;hr size=&quot;1&quot;/&gt;&lt;p style=&quot;margin:0 0 0 4px;line-height:1.6;&quot;&gt; __init__(self): &lt;/p&gt;" style="verticalAlign=top;align=left;overflow=fill;fontSize=14;fontFamily=Helvetica;html=1;rounded=0;shadow=0;comic=0;labelBackgroundColor=none;strokeWidth=1;" parent="1" vertex="1"><mxGeometry x="-160" y="3110" width="112" height="121" as="geometry"/></mxCell><mxCell id="node25" value="&lt;p style=&quot;margin:0px;margin-top:4px;text-align:center;&quot;&gt;&lt;b&gt;UML.Water&lt;/b&gt;&lt;/p&gt;&lt;hr size=&quot;1&quot;/&gt;&lt;p style=&quot;margin:0 0 0 4px;line-height:1.6;&quot;&gt; __id: &lt;br/&gt; _skin: &lt;br/&gt; is_player_available: &lt;br/&gt; id: &lt;/p&gt;&lt;hr size=&quot;1&quot;/&gt;&lt;p style=&quot;margin:0 0 0 4px;line-height:1.6;&quot;&gt; __init__(self): &lt;/p&gt;" style="verticalAlign=top;align=left;overflow=fill;fontSize=14;fontFamily=Helvetica;html=1;rounded=0;shadow=0;comic=0;labelBackgroundColor=none;strokeWidth=1;" parent="1" vertex="1"><mxGeometry x="1080" y="1840" width="149" height="160" as="geometry"/></mxCell><mxCell id="node18" value="&lt;p style=&quot;margin:0px;margin-top:4px;text-align:center;&quot;&gt;&lt;b&gt;UML.Wood&lt;/b&gt;&lt;/p&gt;&lt;hr size=&quot;1&quot;/&gt;&lt;p style=&quot;margin:0 0 0 4px;line-height:1.6;&quot;&gt; _is_burnable: &lt;br/&gt; __id: &lt;br/&gt; _skin: &lt;br/&gt; id: &lt;/p&gt;&lt;hr size=&quot;1&quot;/&gt;&lt;p style=&quot;margin:0 0 0 4px;line-height:1.6;&quot;&gt; __init__(self): &lt;/p&gt;" style="verticalAlign=top;align=left;overflow=fill;fontSize=14;fontFamily=Helvetica;html=1;rounded=0;shadow=0;comic=0;labelBackgroundColor=none;strokeWidth=1;" parent="1" vertex="1"><mxGeometry x="233" y="3090.5" width="120" height="160" as="geometry"/></mxCell><mxCell id="node17" value="&lt;p style=&quot;margin:0px;margin-top:4px;text-align:center;&quot;&gt;&lt;b&gt;UML.inventory&lt;/b&gt;&lt;/p&gt;&lt;hr size=&quot;1&quot;/&gt;&lt;p style=&quot;margin:0 0 0 4px;line-height:1.6;&quot;&gt; _selected_item: &lt;br/&gt; _cursor: &lt;br/&gt; _is_selected: &lt;br/&gt; _size_x: &lt;br/&gt; _scale: &lt;br/&gt; _size_y: &lt;br/&gt; _amount: &lt;br/&gt; _grid: &lt;/p&gt;&lt;hr size=&quot;1&quot;/&gt;&lt;p style=&quot;margin:0 0 0 4px;line-height:1.6;&quot;&gt; __init__(self, size_x=5, size_y=10, scale=None): &lt;br/&gt; __repr__(self): &lt;br/&gt; get_selected_item(self): &lt;br/&gt; get_cursor(self): &lt;br/&gt; get_sizes(self): &lt;br/&gt; add_item(self, item, pos=None): &lt;br/&gt; move_right(self): &lt;br/&gt; move_left(self): &lt;br/&gt; move_up(self): &lt;br/&gt; move_down(self): &lt;br/&gt; select(self): &lt;br/&gt; take_item(self): &lt;br/&gt; get_grid(self): &lt;br/&gt; get_amount(self): &lt;br/&gt; is_selected(self): &lt;/p&gt;" style="verticalAlign=top;align=left;overflow=fill;fontSize=14;fontFamily=Helvetica;html=1;rounded=0;shadow=0;comic=0;labelBackgroundColor=none;strokeWidth=1;" parent="1" vertex="1"><mxGeometry x="3290" y="1212" width="327" height="592" as="geometry"/></mxCell><mxCell id="node23" value="&lt;p style=&quot;margin:0px;margin-top:4px;text-align:center;&quot;&gt;&lt;b&gt;object&lt;/b&gt;&lt;/p&gt;&lt;hr size=&quot;1&quot;/&gt;&lt;p style=&quot;margin:0 0 0 4px;line-height:1.6;&quot;&gt; __doc__: &lt;br/&gt; __dict__: &lt;br/&gt; __module__: &lt;br/&gt; __annotations__: &lt;/p&gt;&lt;hr size=&quot;1&quot;/&gt;&lt;p style=&quot;margin:0 0 0 4px;line-height:1.6;&quot;&gt; __class__(self): &lt;br/&gt; __class__(self, __type: type[object]): &lt;br/&gt; __init__(self): &lt;br/&gt; __new__(cls): &lt;br/&gt; __setattr__(self, __name: str, __value: Any): &lt;br/&gt; __delattr__(self, __name: str): &lt;br/&gt; __eq__(self, __value: object): &lt;br/&gt; __ne__(self, __value: object): &lt;br/&gt; __str__(self): &lt;br/&gt; __repr__(self): &lt;br/&gt; __hash__(self): &lt;br/&gt; __format__(self, __format_spec: str): &lt;br/&gt; __getattribute__(self, __name: str): &lt;br/&gt; __sizeof__(self): &lt;br/&gt; __reduce__(self): &lt;br/&gt; __reduce_ex__(self, __protocol: SupportsIndex): &lt;br/&gt; __reduce_ex__(self, __protocol: int): &lt;br/&gt; __getstate__(self): &lt;br/&gt; __dir__(self): &lt;br/&gt; __init_subclass__(cls): &lt;br/&gt; __subclasshook__(cls, __subclass: type): &lt;/p&gt;" style="verticalAlign=top;align=left;overflow=fill;fontSize=14;fontFamily=Helvetica;html=1;rounded=0;shadow=0;comic=0;labelBackgroundColor=none;strokeWidth=1;" parent="1" vertex="1"><mxGeometry x="-214" y="-168" width="329" height="640" as="geometry"/></mxCell><mxCell id="node14" value="&lt;p style=&quot;margin:0px;margin-top:4px;text-align:center;&quot;&gt;&lt;b&gt;typing.Hashable&lt;/b&gt;&lt;/p&gt;&lt;hr size=&quot;1&quot;/&gt;&lt;p style=&quot;margin:0 0 0 4px;line-height:1.6;&quot;&gt; __hash__(self): &lt;/p&gt;" style="verticalAlign=top;align=left;overflow=fill;fontSize=14;fontFamily=Helvetica;html=1;rounded=0;shadow=0;comic=0;labelBackgroundColor=none;strokeWidth=1;" parent="1" vertex="1"><mxGeometry x="-130" y="-319" width="161" height="68" as="geometry"/></mxCell><mxCell id="edge6" value="" style="html=1;rounded=1;edgeStyle=orthogonalEdgeStyle;dashed=0;startArrow=block;startSize=12;endArrow=none;strokeColor=#595959;exitX=0.500;exitY=0.000;exitDx=0;exitDy=0;entryX=0.500;entryY=1.000;entryDx=0;entryDy=0;" parent="1" source="node1" target="node6" edge="1"><mxGeometry width="50" height="50" relative="1" as="geometry"><Array as="points"><mxPoint x="2945" y="1132"/><mxPoint x="-177" y="1132"/></Array></mxGeometry></mxCell><mxCell id="edge3" value="" style="html=1;rounded=1;edgeStyle=orthogonalEdgeStyle;dashed=0;startArrow=block;startSize=12;endArrow=none;strokeColor=#595959;exitX=0.500;exitY=0.000;exitDx=0;exitDy=0;entryX=0.500;entryY=1.000;entryDx=0;entryDy=0;" parent="1" source="node12" target="node24" edge="1"><mxGeometry width="50" height="50" relative="1" as="geometry"><Array as="points"><mxPoint x="494" y="2492"/><mxPoint x="-154" y="2492"/></Array></mxGeometry></mxCell><mxCell id="edge4" value="" style="html=1;rounded=1;edgeStyle=orthogonalEdgeStyle;dashed=0;startArrow=block;startSize=12;endArrow=none;strokeColor=#595959;exitX=0.500;exitY=0.000;exitDx=0;exitDy=0;entryX=0.500;entryY=1.000;entryDx=0;entryDy=0;" parent="1" source="node3" target="node6" edge="1"><mxGeometry width="50" height="50" relative="1" as="geometry"><Array as="points"><mxPoint x="1671" y="1132"/><mxPoint x="-177" y="1132"/></Array></mxGeometry></mxCell><mxCell id="edge8" value="" style="html=1;rounded=1;edgeStyle=orthogonalEdgeStyle;dashed=0;startArrow=block;startSize=12;endArrow=none;strokeColor=#595959;exitX=0.500;exitY=0.000;exitDx=0;exitDy=0;entryX=0.500;entryY=1.000;entryDx=0;entryDy=0;" parent="1" source="node7" target="node6" edge="1"><mxGeometry width="50" height="50" relative="1" as="geometry"><Array as="points"><mxPoint x="2109" y="1132"/><mxPoint x="-177" y="1132"/></Array></mxGeometry></mxCell><mxCell id="edge16" value="" style="html=1;rounded=1;edgeStyle=orthogonalEdgeStyle;dashed=0;startArrow=block;startSize=12;endArrow=none;strokeColor=#595959;exitX=0.500;exitY=0.000;exitDx=0;exitDy=0;entryX=0.500;entryY=1.000;entryDx=0;entryDy=0;" parent="1" source="node0" target="node4" edge="1"><mxGeometry width="50" height="50" relative="1" as="geometry"><Array as="points"><mxPoint x="-271" y="2940"/><mxPoint x="-153" y="2940"/></Array></mxGeometry></mxCell><mxCell id="edge22" value="" style="html=1;rounded=1;edgeStyle=orthogonalEdgeStyle;dashed=0;startArrow=block;startSize=12;endArrow=none;strokeColor=#595959;exitX=0.500;exitY=0.000;exitDx=0;exitDy=0;entryX=0.500;entryY=1.000;entryDx=0;entryDy=0;" parent="1" source="node9" target="node12" edge="1"><mxGeometry width="50" height="50" relative="1" as="geometry"><Array as="points"><mxPoint x="495" y="3180"/><mxPoint x="489" y="3180"/><mxPoint x="489" y="3170"/><mxPoint x="494" y="3170"/></Array></mxGeometry></mxCell><mxCell id="edge7" value="" style="html=1;rounded=1;edgeStyle=orthogonalEdgeStyle;dashed=0;startArrow=block;startSize=12;endArrow=none;strokeColor=#595959;exitX=0.500;exitY=0.000;exitDx=0;exitDy=0;entryX=0.500;entryY=1.000;entryDx=0;entryDy=0;" parent="1" source="node19" target="node23" edge="1"><mxGeometry width="50" height="50" relative="1" as="geometry"><Array as="points"><mxPoint x="110" y="512"/><mxPoint x="-50" y="512"/></Array></mxGeometry></mxCell><mxCell id="edge15" value="" style="html=1;rounded=1;edgeStyle=orthogonalEdgeStyle;dashed=0;startArrow=block;startSize=12;endArrow=none;strokeColor=#595959;exitX=0.500;exitY=0.000;exitDx=0;exitDy=0;entryX=0.500;entryY=1.000;entryDx=0;entryDy=0;" parent="1" source="node24" target="node6" edge="1"><mxGeometry width="50" height="50" relative="1" as="geometry"><Array as="points"><mxPoint x="-177" y="1710"/><mxPoint x="-177" y="1710"/></Array></mxGeometry></mxCell><mxCell id="edge9" value="" style="html=1;rounded=1;edgeStyle=orthogonalEdgeStyle;dashed=0;startArrow=block;startSize=12;endArrow=none;strokeColor=#595959;exitX=0.500;exitY=0.000;exitDx=0;exitDy=0;entryX=0.500;entryY=1.000;entryDx=0;entryDy=0;" parent="1" source="node6" target="node23" edge="1"><mxGeometry width="50" height="50" relative="1" as="geometry"><Array as="points"><mxPoint x="-177" y="512"/><mxPoint x="-49" y="512"/></Array></mxGeometry></mxCell><mxCell id="edge18" value="" style="html=1;rounded=1;edgeStyle=orthogonalEdgeStyle;dashed=0;startArrow=block;startSize=12;endArrow=none;strokeColor=#595959;exitX=0.500;exitY=0.000;exitDx=0;exitDy=0;entryX=0.500;entryY=1.000;entryDx=0;entryDy=0;" parent="1" source="node11" target="node20" edge="1"><mxGeometry width="50" height="50" relative="1" as="geometry"><Array as="points"><mxPoint x="1335" y="1770"/><mxPoint x="1250" y="1770"/></Array></mxGeometry></mxCell><mxCell id="edge23" value="" style="html=1;rounded=1;edgeStyle=orthogonalEdgeStyle;dashed=0;startArrow=block;startSize=12;endArrow=none;strokeColor=#595959;exitX=0.500;exitY=0.000;exitDx=0;exitDy=0;entryX=0.500;entryY=1.000;entryDx=0;entryDy=0;" parent="1" source="node16" target="node23" edge="1"><mxGeometry width="50" height="50" relative="1" as="geometry"><Array as="points"><mxPoint x="426" y="512"/><mxPoint x="-50" y="512"/></Array></mxGeometry></mxCell><mxCell id="edge10" value="" style="html=1;rounded=1;edgeStyle=orthogonalEdgeStyle;dashed=0;startArrow=block;startSize=12;endArrow=none;strokeColor=#595959;exitX=0.500;exitY=0.000;exitDx=0;exitDy=0;entryX=0.500;entryY=1.000;entryDx=0;entryDy=0;" parent="1" source="node2" target="node8" edge="1"><mxGeometry width="50" height="50" relative="1" as="geometry"><Array as="points"><mxPoint x="143" y="1730"/><mxPoint x="143" y="1730"/></Array></mxGeometry></mxCell><mxCell id="edge2" value="" style="html=1;rounded=1;edgeStyle=orthogonalEdgeStyle;dashed=0;startArrow=block;startSize=12;endArrow=none;strokeColor=#595959;exitX=0.500;exitY=0.000;exitDx=0;exitDy=0;entryX=0.500;entryY=1.000;entryDx=0;entryDy=0;" parent="1" source="node8" target="node6" edge="1"><mxGeometry width="50" height="50" relative="1" as="geometry"><Array as="points"><mxPoint x="143" y="1132"/><mxPoint x="-177" y="1132"/></Array></mxGeometry></mxCell><mxCell id="edge20" value="" style="html=1;rounded=1;edgeStyle=orthogonalEdgeStyle;dashed=0;startArrow=block;startSize=12;endArrow=none;strokeColor=#595959;exitX=0.500;exitY=0.000;exitDx=0;exitDy=0;entryX=0.500;entryY=1.000;entryDx=0;entryDy=0;" parent="1" source="node4" target="node24" edge="1"><mxGeometry width="50" height="50" relative="1" as="geometry"><Array as="points"><mxPoint x="-153" y="2232"/><mxPoint x="-154" y="1986"/></Array></mxGeometry></mxCell><mxCell id="edge14" value="" style="html=1;rounded=1;edgeStyle=orthogonalEdgeStyle;dashed=0;startArrow=block;startSize=12;endArrow=none;strokeColor=#595959;exitX=0.500;exitY=0.000;exitDx=0;exitDy=0;entryX=0.500;entryY=1.000;entryDx=0;entryDy=0;" parent="1" source="node10" target="node6" edge="1"><mxGeometry width="50" height="50" relative="1" as="geometry"><Array as="points"><mxPoint x="630" y="1132"/><mxPoint x="-177" y="1132"/></Array></mxGeometry></mxCell><mxCell id="edge0" value="" style="html=1;rounded=1;edgeStyle=orthogonalEdgeStyle;dashed=0;startArrow=block;startSize=12;endArrow=none;strokeColor=#595959;exitX=0.500;exitY=0.000;exitDx=0;exitDy=0;entryX=0.500;entryY=1.000;entryDx=0;entryDy=0;" parent="1" source="node21" target="node24" edge="1"><mxGeometry width="50" height="50" relative="1" as="geometry"><Array as="points"><mxPoint x="211" y="2492"/><mxPoint x="-154" y="2492"/></Array></mxGeometry></mxCell><mxCell id="edge19" value="" style="html=1;rounded=1;edgeStyle=orthogonalEdgeStyle;dashed=0;startArrow=block;startSize=12;endArrow=none;strokeColor=#595959;exitX=0.500;exitY=0.000;exitDx=0;exitDy=0;entryX=0.500;entryY=1.000;entryDx=0;entryDy=0;" parent="1" source="node13" target="node6" edge="1"><mxGeometry width="50" height="50" relative="1" as="geometry"><Array as="points"><mxPoint x="2499" y="1132"/><mxPoint x="-177" y="1132"/></Array></mxGeometry></mxCell><mxCell id="edge21" value="" style="html=1;rounded=1;edgeStyle=orthogonalEdgeStyle;dashed=0;startArrow=block;startSize=12;endArrow=none;strokeColor=#595959;exitX=0.500;exitY=0.000;exitDx=0;exitDy=0;entryX=0.500;entryY=1.000;entryDx=0;entryDy=0;" parent="1" source="node20" target="node6" edge="1"><mxGeometry width="50" height="50" relative="1" as="geometry"><Array as="points"><mxPoint x="1250" y="1132"/><mxPoint x="-177" y="1132"/></Array></mxGeometry></mxCell><mxCell id="edge13" value="" style="html=1;rounded=1;edgeStyle=orthogonalEdgeStyle;dashed=0;startArrow=block;startSize=12;endArrow=none;strokeColor=#595959;exitX=0.500;exitY=0.000;exitDx=0;exitDy=0;entryX=0.500;entryY=1.000;entryDx=0;entryDy=0;" parent="1" source="node22" target="node21" edge="1"><mxGeometry width="50" height="50" relative="1" as="geometry"><Array as="points"><mxPoint x="147" y="2930"/><mxPoint x="211" y="2930"/></Array></mxGeometry></mxCell><mxCell id="edge17" value="" style="html=1;rounded=1;edgeStyle=orthogonalEdgeStyle;dashed=0;startArrow=block;startSize=12;endArrow=none;strokeColor=#595959;exitX=0.500;exitY=0.000;exitDx=0;exitDy=0;entryX=0.500;entryY=1.000;entryDx=0;entryDy=0;" parent="1" source="node5" target="node3" edge="1"><mxGeometry width="50" height="50" relative="1" as="geometry"><Array as="points"/></mxGeometry></mxCell><mxCell id="edge11" value="" style="html=1;rounded=1;edgeStyle=orthogonalEdgeStyle;dashed=0;startArrow=block;startSize=12;endArrow=none;strokeColor=#595959;exitX=0.500;exitY=0.000;exitDx=0;exitDy=0;entryX=0.500;entryY=1.000;entryDx=0;entryDy=0;" parent="1" source="node15" target="node4" edge="1"><mxGeometry width="50" height="50" relative="1" as="geometry"><Array as="points"><mxPoint x="-104" y="2940"/><mxPoint x="-153" y="2940"/></Array></mxGeometry></mxCell><mxCell id="edge1" value="" style="html=1;rounded=1;edgeStyle=orthogonalEdgeStyle;dashed=0;startArrow=block;startSize=12;endArrow=none;strokeColor=#595959;exitX=0.500;exitY=0.000;exitDx=0;exitDy=0;entryX=0.500;entryY=1.000;entryDx=0;entryDy=0;" parent="1" source="node25" target="node20" edge="1"><mxGeometry width="50" height="50" relative="1" as="geometry"><Array as="points"><mxPoint x="1155" y="1770"/><mxPoint x="1250" y="1770"/></Array></mxGeometry></mxCell><mxCell id="edge5" value="" style="html=1;rounded=1;edgeStyle=orthogonalEdgeStyle;dashed=0;startArrow=block;startSize=12;endArrow=none;strokeColor=#595959;exitX=0.500;exitY=0.000;exitDx=0;exitDy=0;entryX=0.500;entryY=1.000;entryDx=0;entryDy=0;" parent="1" source="node18" target="node21" edge="1"><mxGeometry width="50" height="50" relative="1" as="geometry"><Array as="points"/></mxGeometry></mxCell><mxCell id="edge24" value="" style="html=1;rounded=1;edgeStyle=orthogonalEdgeStyle;dashed=0;startArrow=block;startSize=12;endArrow=none;strokeColor=#595959;exitX=0.500;exitY=0.000;exitDx=0;exitDy=0;entryX=0.500;entryY=1.000;entryDx=0;entryDy=0;" parent="1" source="node17" target="node6" edge="1"><mxGeometry width="50" height="50" relative="1" as="geometry"><Array as="points"><mxPoint x="3453" y="1132"/><mxPoint x="-177" y="1132"/></Array></mxGeometry></mxCell><mxCell id="edge12" value="" style="html=1;rounded=1;edgeStyle=orthogonalEdgeStyle;dashed=1;startArrow=block;startSize=12;endArrow=none;strokeColor=#595959;exitX=0.500;exitY=0.000;exitDx=0;exitDy=0;entryX=0.500;entryY=1.001;entryDx=0;entryDy=0;" parent="1" source="node23" target="node14" edge="1"><mxGeometry width="50" height="50" relative="1" as="geometry"><Array as="points"/></mxGeometry></mxCell><mxCell id="V3_ZuEetaS4CPQc67fq0-2" value="Use" style="endArrow=open;endSize=12;dashed=1;html=1;rounded=0;exitX=1;exitY=1;exitDx=0;exitDy=0;entryX=0;entryY=1;entryDx=0;entryDy=0;" parent="1" source="node10" target="node17" edge="1"><mxGeometry width="160" relative="1" as="geometry"><mxPoint x="1960" y="1860" as="sourcePoint"/><mxPoint x="2120" y="1860" as="targetPoint"/><Array as="points"><mxPoint x="840" y="2080"/><mxPoint x="3290" y="2080"/></Array></mxGeometry></mxCell><mxCell id="V3_ZuEetaS4CPQc67fq0-3" value="" style="endArrow=open;html=1;endSize=12;startArrow=diamondThin;startSize=14;startFill=0;edgeStyle=orthogonalEdgeStyle;rounded=0;exitX=0.75;exitY=1;exitDx=0;exitDy=0;entryX=0.25;entryY=1;entryDx=0;entryDy=0;" parent="1" source="node10" target="node17" edge="1"><mxGeometry relative="1" as="geometry"><mxPoint x="1960" y="1860" as="sourcePoint"/><mxPoint x="2120" y="1860" as="targetPoint"/><Array as="points"><mxPoint x="732" y="2120"/><mxPoint x="3372" y="2120"/></Array></mxGeometry></mxCell><mxCell id="V3_ZuEetaS4CPQc67fq0-4" value="1" style="edgeLabel;resizable=0;html=1;align=left;verticalAlign=top;" parent="V3_ZuEetaS4CPQc67fq0-3" connectable="0" vertex="1"><mxGeometry x="-1" relative="1" as="geometry"/></mxCell><mxCell id="V3_ZuEetaS4CPQc67fq0-5" value="0...n&lt;div&gt;&lt;br&gt;&lt;/div&gt;" style="edgeLabel;resizable=0;html=1;align=right;verticalAlign=top;" parent="V3_ZuEetaS4CPQc67fq0-3" connectable="0" vertex="1"><mxGeometry x="1" relative="1" as="geometry"/></mxCell><mxCell id="V3_ZuEetaS4CPQc67fq0-6" value="Relation" style="endArrow=open;html=1;endSize=12;startArrow=diamondThin;startSize=14;startFill=0;edgeStyle=orthogonalEdgeStyle;rounded=0;exitX=0.25;exitY=0;exitDx=0;exitDy=0;entryX=0.75;entryY=0;entryDx=0;entryDy=0;" parent="1" source="node1" target="node20" edge="1"><mxGeometry relative="1" as="geometry"><mxPoint x="2000" y="1500" as="sourcePoint"/><mxPoint x="2160" y="1500" as="targetPoint"/><Array as="points"><mxPoint x="2848" y="1010"/><mxPoint x="1350" y="1010"/></Array></mxGeometry></mxCell><mxCell id="V3_ZuEetaS4CPQc67fq0-7" value="1" style="edgeLabel;resizable=0;html=1;align=left;verticalAlign=top;" parent="V3_ZuEetaS4CPQc67fq0-6" connectable="0" vertex="1"><mxGeometry x="-1" relative="1" as="geometry"/></mxCell><mxCell id="V3_ZuEetaS4CPQc67fq0-8" value="0...n&lt;div&gt;&lt;br&gt;&lt;/div&gt;" style="edgeLabel;resizable=0;html=1;align=right;verticalAlign=top;" parent="V3_ZuEetaS4CPQc67fq0-6" connectable="0" vertex="1"><mxGeometry x="1" relative="1" as="geometry"/></mxCell><mxCell id="V3_ZuEetaS4CPQc67fq0-9" value="Relation" style="endArrow=open;html=1;endSize=12;startArrow=diamondThin;startSize=14;startFill=0;edgeStyle=orthogonalEdgeStyle;rounded=0;exitX=0;exitY=1;exitDx=0;exitDy=0;entryX=1;entryY=1;entryDx=0;entryDy=0;" parent="1" source="node20" target="node24" edge="1"><mxGeometry relative="1" as="geometry"><mxPoint x="540" y="1870" as="sourcePoint"/><mxPoint x="700" y="1870" as="targetPoint"/></mxGeometry></mxCell><mxCell id="V3_ZuEetaS4CPQc67fq0-10" value="1&lt;div&gt;&lt;br&gt;&lt;/div&gt;" style="edgeLabel;resizable=0;html=1;align=left;verticalAlign=top;" parent="V3_ZuEetaS4CPQc67fq0-9" connectable="0" vertex="1"><mxGeometry x="-1" relative="1" as="geometry"/></mxCell><mxCell id="V3_ZuEetaS4CPQc67fq0-11" value="0...n&lt;div&gt;&lt;br&gt;&lt;/div&gt;" style="edgeLabel;resizable=0;html=1;align=right;verticalAlign=top;" parent="V3_ZuEetaS4CPQc67fq0-9" connectable="0" vertex="1"><mxGeometry x="1" relative="1" as="geometry"/></mxCell><mxCell id="V3_ZuEetaS4CPQc67fq0-12" value="Use" style="endArrow=open;endSize=12;dashed=1;html=1;rounded=0;exitX=0;exitY=1;exitDx=0;exitDy=0;entryX=1;entryY=1;entryDx=0;entryDy=0;" parent="1" source="node13" target="node3" edge="1"><mxGeometry width="160" relative="1" as="geometry"><mxPoint x="1990" y="1670" as="sourcePoint"/><mxPoint x="2150" y="1670" as="targetPoint"/><Array as="points"><mxPoint x="1851" y="1850"/></Array></mxGeometry></mxCell><mxCell id="V3_ZuEetaS4CPQc67fq0-13" value="Use" style="endArrow=open;endSize=12;dashed=1;html=1;rounded=0;exitX=1;exitY=0;exitDx=0;exitDy=0;entryX=0;entryY=0;entryDx=0;entryDy=0;" parent="1" source="node8" target="node3" edge="1"><mxGeometry width="160" relative="1" as="geometry"><mxPoint x="370" y="1220" as="sourcePoint"/><mxPoint x="990" y="1710" as="targetPoint"/><Array as="points"><mxPoint x="353" y="1100"/><mxPoint x="920" y="1100"/><mxPoint x="1490" y="1100"/></Array></mxGeometry></mxCell><mxCell id="V3_ZuEetaS4CPQc67fq0-14" value="Relation" style="endArrow=open;html=1;endSize=12;startArrow=diamondThin;startSize=14;startFill=0;edgeStyle=orthogonalEdgeStyle;rounded=0;exitX=0.75;exitY=0;exitDx=0;exitDy=0;entryX=0.25;entryY=0;entryDx=0;entryDy=0;" parent="1" source="node8" target="node3" edge="1"><mxGeometry relative="1" as="geometry"><mxPoint x="710" y="1320" as="sourcePoint"/><mxPoint x="870" y="1320" as="targetPoint"/><Array as="points"><mxPoint x="248" y="1070"/><mxPoint x="1580" y="1070"/></Array></mxGeometry></mxCell><mxCell id="V3_ZuEetaS4CPQc67fq0-15" value="1" style="edgeLabel;resizable=0;html=1;align=left;verticalAlign=top;" parent="V3_ZuEetaS4CPQc67fq0-14" connectable="0" vertex="1"><mxGeometry x="-1" relative="1" as="geometry"/></mxCell><mxCell id="V3_ZuEetaS4CPQc67fq0-16" value="0...n" style="edgeLabel;resizable=0;html=1;align=right;verticalAlign=top;" parent="V3_ZuEetaS4CPQc67fq0-14" connectable="0" vertex="1"><mxGeometry x="1" relative="1" as="geometry"/></mxCell></root></mxGraphModel></diagram></mxfile>